# xmcd CD database file
#
# Track frame offsets:
#	150
#	41155
#	67005
#	98307
#	117867
#	144290
#	191810
#	212827
#
# Disc length: 3143 seconds
#
# Revision: 0
# Processed by: cddbd v1.5.2PL0 Copyright (c) Steve Scherf et al.
# Submitted via: CDex 1.51
#
DISCID=700c4508
DTITLE=Vangelis - To The Unknown Man
DYEAR=1982
DGENRE=New Age
TTITLE0=To The Unknown Man
TTITLE1=Pulstar
TTITLE2=Spiral
TTITLE3=Albedo 0.39
TTITLE4=Aries
TTITLE5=Beauborg excerpt
TTITLE6=Bacchanale
TTITLE7=So Long Ago, So Clear
EXTD=YEAR: 1982
EXTT0=
EXTT1=
EXTT2=
EXTT3=
EXTT4=
EXTT5=
EXTT6=
EXTT7=
PLAYORDER=
